<?xml version="1.0" encoding="UTF-8" standalone="no"?>
<!DOCTYPE svg PUBLIC "-//W3C//DTD SVG 1.1//EN"
 "http://www.w3.org/Graphics/SVG/1.1/DTD/svg11.dtd">
<!-- Generated by graphviz version 2.40.1 (20161225.0304)
 -->
<!-- Title: AST Pages: 1 -->
<svg width="440pt" height="220pt"
 viewBox="0.00 0.00 440.00 220.00" xmlns="http://www.w3.org/2000/svg" xmlns:xlink="http://www.w3.org/1999/xlink">
<g id="graph0" class="graph" transform="scale(1 1) rotate(0) translate(4 216)">
<title>AST</title>
<polygon fill="#ffffff" stroke="transparent" points="-4,4 -4,-216 436,-216 436,4 -4,4"/>
<g id="clust1" class="cluster">
<title>cluster0</title>
<polygon fill="none" stroke="#000000" points="8,-152 8,-204 202,-204 202,-152 8,-152"/>
</g>
<g id="clust2" class="cluster">
<title>cluster1</title>
<polygon fill="none" stroke="#000000" points="210,-8 210,-204 424,-204 424,-8 210,-8"/>
</g>
<!-- Raw -->
<g id="node1" class="node">
<title>Raw</title>
<ellipse fill="none" stroke="#000000" cx="105" cy="-178" rx="88.9365" ry="18"/>
<text text-anchor="middle" x="105" y="-173.8" font-family="Times,serif" font-size="14.00" fill="#000000">if (1 &lt; 2) &quot;A&quot; else &quot;B&quot;</text>
</g>
<!-- If -->
<g id="node2" class="node">
<title>If</title>
<ellipse fill="none" stroke="#000000" cx="317" cy="-178" rx="27" ry="18"/>
<text text-anchor="middle" x="317" y="-173.8" font-family="Times,serif" font-size="14.00" fill="#000000">IF</text>
</g>
<!-- Node1 -->
<g id="node4" class="node">
<title>Node1</title>
<ellipse fill="none" stroke="#000000" cx="245" cy="-106" rx="27" ry="18"/>
<text text-anchor="middle" x="245" y="-101.8" font-family="Times,serif" font-size="14.00" fill="#000000">&lt;</text>
</g>
<!-- If&#45;&gt;Node1 -->
<g id="edge1" class="edge">
<title>If&#45;&gt;Node1</title>
<path fill="none" stroke="#000000" d="M301.7307,-162.7307C291.803,-152.803 278.6847,-139.6847 267.5637,-128.5637"/>
<polygon fill="#000000" stroke="#000000" points="269.7933,-125.8436 260.2473,-121.2473 264.8436,-130.7933 269.7933,-125.8436"/>
</g>
<!-- Node3 -->
<g id="node6" class="node">
<title>Node3</title>
<ellipse fill="none" stroke="#000000" cx="317" cy="-106" rx="27" ry="18"/>
<text text-anchor="middle" x="317" y="-101.8" font-family="Times,serif" font-size="14.00" fill="#000000">&quot;A&quot;</text>
</g>
<!-- If&#45;&gt;Node3 -->
<g id="edge2" class="edge">
<title>If&#45;&gt;Node3</title>
<path fill="none" stroke="#000000" d="M317,-159.8314C317,-152.131 317,-142.9743 317,-134.4166"/>
<polygon fill="#000000" stroke="#000000" points="320.5001,-134.4132 317,-124.4133 313.5001,-134.4133 320.5001,-134.4132"/>
</g>
<!-- Node4 -->
<g id="node7" class="node">
<title>Node4</title>
<ellipse fill="none" stroke="#000000" cx="389" cy="-106" rx="27" ry="18"/>
<text text-anchor="middle" x="389" y="-101.8" font-family="Times,serif" font-size="14.00" fill="#000000">&quot;B&quot;</text>
</g>
<!-- If&#45;&gt;Node4 -->
<g id="edge3" class="edge">
<title>If&#45;&gt;Node4</title>
<path fill="none" stroke="#000000" d="M332.2693,-162.7307C342.197,-152.803 355.3153,-139.6847 366.4363,-128.5637"/>
<polygon fill="#000000" stroke="#000000" points="369.1564,-130.7933 373.7527,-121.2473 364.2067,-125.8436 369.1564,-130.7933"/>
</g>
<!-- Node0 -->
<g id="node3" class="node">
<title>Node0</title>
<ellipse fill="none" stroke="#000000" cx="245" cy="-34" rx="27" ry="18"/>
<text text-anchor="middle" x="245" y="-29.8" font-family="Times,serif" font-size="14.00" fill="#000000">1</text>
</g>
<!-- Node1&#45;&gt;Node0 -->
<g id="edge4" class="edge">
<title>Node1&#45;&gt;Node0</title>
<path fill="none" stroke="#000000" d="M245,-87.8314C245,-80.131 245,-70.9743 245,-62.4166"/>
<polygon fill="#000000" stroke="#000000" points="248.5001,-62.4132 245,-52.4133 241.5001,-62.4133 248.5001,-62.4132"/>
</g>
<!-- Node2 -->
<g id="node5" class="node">
<title>Node2</title>
<ellipse fill="none" stroke="#000000" cx="317" cy="-34" rx="27" ry="18"/>
<text text-anchor="middle" x="317" y="-29.8" font-family="Times,serif" font-size="14.00" fill="#000000">2</text>
</g>
<!-- Node1&#45;&gt;Node2 -->
<g id="edge5" class="edge">
<title>Node1&#45;&gt;Node2</title>
<path fill="none" stroke="#000000" d="M260.2693,-90.7307C270.197,-80.803 283.3153,-67.6847 294.4363,-56.5637"/>
<polygon fill="#000000" stroke="#000000" points="297.1564,-58.7933 301.7527,-49.2473 292.2067,-53.8436 297.1564,-58.7933"/>
</g>
</g>
</svg>
