<?xml version="1.0" encoding="UTF-8" standalone="no"?>
<!DOCTYPE svg PUBLIC "-//W3C//DTD SVG 1.1//EN"
 "http://www.w3.org/Graphics/SVG/1.1/DTD/svg11.dtd">
<!-- Generated by graphviz version 2.40.1 (20161225.0304)
 -->
<!-- Title: CST Pages: 1 -->
<svg width="656pt" height="220pt"
 viewBox="0.00 0.00 656.00 220.00" xmlns="http://www.w3.org/2000/svg" xmlns:xlink="http://www.w3.org/1999/xlink">
<g id="graph0" class="graph" transform="scale(1 1) rotate(0) translate(4 216)">
<title>CST</title>
<polygon fill="#ffffff" stroke="transparent" points="-4,4 -4,-216 652,-216 652,4 -4,4"/>
<g id="clust1" class="cluster">
<title>cluster0</title>
<polygon fill="none" stroke="#000000" points="8,-152 8,-204 202,-204 202,-152 8,-152"/>
</g>
<g id="clust2" class="cluster">
<title>cluster1</title>
<polygon fill="none" stroke="#000000" points="210,-8 210,-204 640,-204 640,-8 210,-8"/>
</g>
<!-- Raw -->
<g id="node1" class="node">
<title>Raw</title>
<ellipse fill="none" stroke="#000000" cx="105" cy="-178" rx="88.9365" ry="18"/>
<text text-anchor="middle" x="105" y="-173.8" font-family="Times,serif" font-size="14.00" fill="#000000">if (1 &lt; 2) &quot;A&quot; else &quot;B&quot;</text>
</g>
<!-- If -->
<g id="node2" class="node">
<title>If</title>
<ellipse fill="none" stroke="#000000" cx="425" cy="-178" rx="27" ry="18"/>
<text text-anchor="middle" x="425" y="-173.8" font-family="Times,serif" font-size="14.00" fill="#000000">if</text>
</g>
<!-- Node0 -->
<g id="node3" class="node">
<title>Node0</title>
<ellipse fill="none" stroke="#000000" cx="245" cy="-106" rx="27" ry="18"/>
<text text-anchor="middle" x="245" y="-101.8" font-family="Times,serif" font-size="14.00" fill="#000000"> </text>
</g>
<!-- If&#45;&gt;Node0 -->
<g id="edge1" class="edge">
<title>If&#45;&gt;Node0</title>
<path fill="none" stroke="#000000" d="M400.7416,-169.7783C371.869,-159.7927 322.3615,-142.0365 281,-124 279.2226,-123.2249 277.4074,-122.4064 275.5837,-121.5629"/>
<polygon fill="#000000" stroke="#000000" points="277.0584,-118.3885 266.5278,-117.2234 274.0334,-124.7011 277.0584,-118.3885"/>
</g>
<!-- Node1 -->
<g id="node4" class="node">
<title>Node1</title>
<ellipse fill="none" stroke="#000000" cx="317" cy="-106" rx="27" ry="18"/>
<text text-anchor="middle" x="317" y="-101.8" font-family="Times,serif" font-size="14.00" fill="#000000">(</text>
</g>
<!-- If&#45;&gt;Node1 -->
<g id="edge2" class="edge">
<title>If&#45;&gt;Node1</title>
<path fill="none" stroke="#000000" d="M405.6918,-165.1278C388.6445,-153.763 363.5981,-137.0654 344.4656,-124.3104"/>
<polygon fill="#000000" stroke="#000000" points="346.4031,-121.3956 336.1411,-118.7607 342.5201,-127.2199 346.4031,-121.3956"/>
</g>
<!-- Node3 -->
<g id="node6" class="node">
<title>Node3</title>
<ellipse fill="none" stroke="#000000" cx="389" cy="-106" rx="27" ry="18"/>
<text text-anchor="middle" x="389" y="-101.8" font-family="Times,serif" font-size="14.00" fill="#000000">&lt;</text>
</g>
<!-- If&#45;&gt;Node3 -->
<g id="edge3" class="edge">
<title>If&#45;&gt;Node3</title>
<path fill="none" stroke="#000000" d="M416.2854,-160.5708C412.0403,-152.0807 406.8464,-141.6929 402.1337,-132.2674"/>
<polygon fill="#000000" stroke="#000000" points="405.237,-130.6477 397.6343,-123.2687 398.976,-133.7782 405.237,-130.6477"/>
</g>
<!-- Node5 -->
<g id="node8" class="node">
<title>Node5</title>
<ellipse fill="none" stroke="#000000" cx="461" cy="-106" rx="27" ry="18"/>
<text text-anchor="middle" x="461" y="-101.8" font-family="Times,serif" font-size="14.00" fill="#000000">)</text>
</g>
<!-- If&#45;&gt;Node5 -->
<g id="edge4" class="edge">
<title>If&#45;&gt;Node5</title>
<path fill="none" stroke="#000000" d="M433.7146,-160.5708C437.9597,-152.0807 443.1536,-141.6929 447.8663,-132.2674"/>
<polygon fill="#000000" stroke="#000000" points="451.024,-133.7782 452.3657,-123.2687 444.763,-130.6477 451.024,-133.7782"/>
</g>
<!-- Node6 -->
<g id="node9" class="node">
<title>Node6</title>
<ellipse fill="none" stroke="#000000" cx="533" cy="-106" rx="27" ry="18"/>
<text text-anchor="middle" x="533" y="-101.8" font-family="Times,serif" font-size="14.00" fill="#000000">&quot;A&quot;</text>
</g>
<!-- If&#45;&gt;Node6 -->
<g id="edge5" class="edge">
<title>If&#45;&gt;Node6</title>
<path fill="none" stroke="#000000" d="M444.3082,-165.1278C461.3555,-153.763 486.4019,-137.0654 505.5344,-124.3104"/>
<polygon fill="#000000" stroke="#000000" points="507.4799,-127.2199 513.8589,-118.7607 503.5969,-121.3956 507.4799,-127.2199"/>
</g>
<!-- Node7 -->
<g id="node10" class="node">
<title>Node7</title>
<ellipse fill="none" stroke="#000000" cx="605" cy="-106" rx="27" ry="18"/>
<text text-anchor="middle" x="605" y="-101.8" font-family="Times,serif" font-size="14.00" fill="#000000">else</text>
</g>
<!-- If&#45;&gt;Node7 -->
<g id="edge6" class="edge">
<title>If&#45;&gt;Node7</title>
<path fill="none" stroke="#000000" d="M449.2584,-169.7783C478.131,-159.7927 527.6385,-142.0365 569,-124 570.7774,-123.2249 572.5926,-122.4064 574.4163,-121.5629"/>
<polygon fill="#000000" stroke="#000000" points="575.9666,-124.7011 583.4722,-117.2234 572.9416,-118.3885 575.9666,-124.7011"/>
</g>
<!-- Node2 -->
<g id="node5" class="node">
<title>Node2</title>
<ellipse fill="none" stroke="#000000" cx="353" cy="-34" rx="27" ry="18"/>
<text text-anchor="middle" x="353" y="-29.8" font-family="Times,serif" font-size="14.00" fill="#000000">1</text>
</g>
<!-- Node3&#45;&gt;Node2 -->
<g id="edge7" class="edge">
<title>Node3&#45;&gt;Node2</title>
<path fill="none" stroke="#000000" d="M380.2854,-88.5708C376.0403,-80.0807 370.8464,-69.6929 366.1337,-60.2674"/>
<polygon fill="#000000" stroke="#000000" points="369.237,-58.6477 361.6343,-51.2687 362.976,-61.7782 369.237,-58.6477"/>
</g>
<!-- Node4 -->
<g id="node7" class="node">
<title>Node4</title>
<ellipse fill="none" stroke="#000000" cx="425" cy="-34" rx="27" ry="18"/>
<text text-anchor="middle" x="425" y="-29.8" font-family="Times,serif" font-size="14.00" fill="#000000">2</text>
</g>
<!-- Node3&#45;&gt;Node4 -->
<g id="edge8" class="edge">
<title>Node3&#45;&gt;Node4</title>
<path fill="none" stroke="#000000" d="M397.7146,-88.5708C401.9597,-80.0807 407.1536,-69.6929 411.8663,-60.2674"/>
<polygon fill="#000000" stroke="#000000" points="415.024,-61.7782 416.3657,-51.2687 408.763,-58.6477 415.024,-61.7782"/>
</g>
<!-- Node8 -->
<g id="node11" class="node">
<title>Node8</title>
<ellipse fill="none" stroke="#000000" cx="605" cy="-34" rx="27" ry="18"/>
<text text-anchor="middle" x="605" y="-29.8" font-family="Times,serif" font-size="14.00" fill="#000000">&quot;B&quot;</text>
</g>
<!-- Node7&#45;&gt;Node8 -->
<g id="edge9" class="edge">
<title>Node7&#45;&gt;Node8</title>
<path fill="none" stroke="#000000" d="M605,-87.8314C605,-80.131 605,-70.9743 605,-62.4166"/>
<polygon fill="#000000" stroke="#000000" points="608.5001,-62.4132 605,-52.4133 601.5001,-62.4133 608.5001,-62.4132"/>
</g>
</g>
</svg>
