<?xml version="1.0" encoding="UTF-8" standalone="no"?>
<!DOCTYPE svg PUBLIC "-//W3C//DTD SVG 1.1//EN"
 "http://www.w3.org/Graphics/SVG/1.1/DTD/svg11.dtd">
<!-- Generated by graphviz version 2.40.1 (20161225.0304)
 -->
<!-- Title: CST Pages: 1 -->
<svg width="152pt" height="116pt"
 viewBox="0.00 0.00 151.67 116.00" xmlns="http://www.w3.org/2000/svg" xmlns:xlink="http://www.w3.org/1999/xlink">
<g id="graph0" class="graph" transform="scale(1 1) rotate(0) translate(4 112)">
<title>CST</title>
<polygon fill="#ffffff" stroke="transparent" points="-4,4 -4,-112 147.6692,-112 147.6692,4 -4,4"/>
<!-- Foo -->
<g id="node1" class="node">
<title>Foo</title>
<ellipse fill="none" stroke="#000000" cx="71.3346" cy="-90" rx="27" ry="18"/>
<text text-anchor="middle" x="71.3346" y="-85.8" font-family="Courier,monospace" font-size="14.00" fill="#000000">Foo</text>
</g>
<!-- Bar1 -->
<g id="node2" class="node">
<title>Bar1</title>
<ellipse fill="none" stroke="#000000" cx="31.3346" cy="-18" rx="31.1701" ry="18"/>
<text text-anchor="middle" x="31.3346" y="-13.8" font-family="Courier,monospace" font-size="14.00" fill="#000000">Bar1</text>
</g>
<!-- Bar1&#45;&gt;Foo -->
<g id="edge1" class="edge">
<title>Bar1&#45;&gt;Foo</title>
<path fill="none" stroke="#000000" d="M41.0175,-35.4292C45.7342,-43.9193 51.5052,-54.3071 56.7416,-63.7326"/>
<polygon fill="#000000" stroke="#000000" points="53.8248,-65.6895 61.7409,-72.7313 59.944,-62.29 53.8248,-65.6895"/>
</g>
<!-- Bar2 -->
<g id="node3" class="node">
<title>Bar2</title>
<ellipse fill="none" stroke="#000000" cx="112.3346" cy="-18" rx="31.1701" ry="18"/>
<text text-anchor="middle" x="112.3346" y="-13.8" font-family="Courier,monospace" font-size="14.00" fill="#000000">Bar2</text>
</g>
<!-- Bar2&#45;&gt;Foo -->
<g id="edge2" class="edge">
<title>Bar2&#45;&gt;Foo</title>
<path fill="none" stroke="#000000" d="M102.4096,-35.4292C97.5246,-44.0078 91.5363,-54.5238 86.1249,-64.0268"/>
<polygon fill="#000000" stroke="#000000" points="83.0751,-62.3095 81.1681,-72.7313 89.158,-65.7734 83.0751,-62.3095"/>
</g>
</g>
</svg>
