<?xml version="1.0" encoding="UTF-8" standalone="no"?>
<!DOCTYPE svg PUBLIC "-//W3C//DTD SVG 1.1//EN"
 "http://www.w3.org/Graphics/SVG/1.1/DTD/svg11.dtd">
<!-- Generated by graphviz version 2.40.1 (20161225.0304)
 -->
<!-- Title: StructuralSubtyping Pages: 1 -->
<svg width="230pt" height="116pt"
 viewBox="0.00 0.00 229.88 116.00" xmlns="http://www.w3.org/2000/svg" xmlns:xlink="http://www.w3.org/1999/xlink">
<g id="graph0" class="graph" transform="scale(1 1) rotate(0) translate(4 112)">
<title>StructuralSubtyping</title>
<polygon fill="#ffffff" stroke="transparent" points="-4,4 -4,-112 225.8775,-112 225.8775,4 -4,4"/>
<!-- FooLike -->
<g id="node1" class="node">
<title>FooLike</title>
<ellipse fill="none" stroke="#000000" cx="110.9387" cy="-90" rx="110.8775" ry="18"/>
<text text-anchor="middle" x="110.9387" y="-85.8" font-family="Courier,monospace" font-size="14.00" fill="#000000">{ def foo: String }</text>
</g>
<!-- Foo1 -->
<g id="node2" class="node">
<title>Foo1</title>
<ellipse fill="none" stroke="#000000" cx="70.9387" cy="-18" rx="31.1701" ry="18"/>
<text text-anchor="middle" x="70.9387" y="-13.8" font-family="Courier,monospace" font-size="14.00" fill="#000000">Foo1</text>
</g>
<!-- Foo1&#45;&gt;FooLike -->
<g id="edge1" class="edge">
<title>Foo1&#45;&gt;FooLike</title>
<path fill="none" stroke="#000000" d="M80.6216,-35.4292C85.2343,-43.7321 90.8553,-53.8498 95.9985,-63.1075"/>
<polygon fill="#000000" stroke="#000000" points="93.0113,-64.9376 100.9273,-71.9794 99.1304,-61.5381 93.0113,-64.9376"/>
</g>
<!-- Foo2 -->
<g id="node3" class="node">
<title>Foo2</title>
<ellipse fill="none" stroke="#000000" cx="151.9387" cy="-18" rx="31.1701" ry="18"/>
<text text-anchor="middle" x="151.9387" y="-13.8" font-family="Courier,monospace" font-size="14.00" fill="#000000">Foo2</text>
</g>
<!-- Foo2&#45;&gt;FooLike -->
<g id="edge2" class="edge">
<title>Foo2&#45;&gt;FooLike</title>
<path fill="none" stroke="#000000" d="M142.0138,-35.4292C137.2858,-43.7321 131.5243,-53.8498 126.2525,-63.1075"/>
<polygon fill="#000000" stroke="#000000" points="123.1075,-61.5576 121.2005,-71.9794 129.1904,-65.0215 123.1075,-61.5576"/>
</g>
</g>
</svg>
